<?xml version="1.0" encoding="UTF-8"?>
<svg width="52px" height="48px" viewBox="0 0 52 48" version="1.1" xmlns="http://www.w3.org/2000/svg" xmlns:xlink="http://www.w3.org/1999/xlink">
    <!-- Generator: Sketch 47.1 (45422) - http://www.bohemiancoding.com/sketch -->
    <title>affinity-1</title>
    <desc>Created with Sketch.</desc>
    <defs></defs>
    <g id="website-1.4" stroke="none" stroke-width="1" fill="none" fill-rule="evenodd">
        <g id="about-me" transform="translate(-827.000000, -1137.000000)" stroke="#000000" fill-rule="nonzero">
            <g id="Group" transform="translate(320.000000, 1136.000000)">
                <g id="affinity-1" transform="translate(508.000000, 2.000000)">
                    <path d="M19.5044379,0 L27.3742604,0 L28.0325444,1.15934959 L30.2884615,1.15934959 L49.9704142,35.6406504 L45.7322485,42.9482927 L28.5059172,42.9482927 L30.2514793,45.9925203 L29.489645,45.9925203 L27.7440828,42.9482927 L6.36094675,42.9482927 L5.26627219,41.0035772 L3.91272189,41.0035772 L0,34.1521951 L0.0073964497,34.1521951 L5.02218935,25.3560976 L9.66715976,22.6484553 L17.352071,9.19252033 L15.806213,6.48487805 L19.5044379,0 Z M24.1420118,11.9001626 L10.5473373,35.6481301 L23.5576923,35.6481301 L22.056213,33.0227642 L36.2352071,33.0377236 L24.1420118,11.9001626 Z" id="Shape"></path>
                </g>
            </g>
        </g>
    </g>
</svg>