<?xml version="1.0" encoding="UTF-8"?>
<svg width="52px" height="40px" viewBox="0 0 52 40" version="1.1" xmlns="http://www.w3.org/2000/svg" xmlns:xlink="http://www.w3.org/1999/xlink">
    <!-- Generator: Sketch 47.1 (45422) - http://www.bohemiancoding.com/sketch -->
    <title>Group 4</title>
    <desc>Created with Sketch.</desc>
    <defs>
        <path d="M49.9700096,4.01563423 C49.9049102,3.01758411 49.734861,2.52536226 49.4699748,2.03006805 C49.1241274,1.38338962 48.6166104,0.875872612 47.969932,0.530025206 C47.3232535,0.1841778 46.6818126,3.55271368e-15 44.9129262,0 L5.08707381,0 C3.31818742,0 2.67674647,0.1841778 2.03006805,0.530025206 C1.38338962,0.875872612 0.875872612,1.38338962 0.530025206,2.03006805 C0.250582175,2.55258109 0.0766861455,3.07167481 0.020210295,4.1848447 C0.151881379,4.32502407 0.297094844,4.47452529 0.457575954,4.6350064 L21.3231601,25.5005905 C22.5739516,26.7513821 23.1577523,27.074716 23.859574,27.2874356 C24.5613957,27.5001553 25.2791332,27.5001553 25.9809549,27.2874356 C26.6827767,27.074716 27.2665773,26.7513821 28.5173689,25.5005905 L49.3128035,4.70515588 C49.568231,4.44972838 49.7849809,4.22211628 49.9700096,4.01563423 L49.9700096,4.01563423 Z" id="path-1"></path>
    </defs>
    <g id="website-1.4" stroke="none" stroke-width="1" fill="none" fill-rule="evenodd">
        <g id="about-me" transform="translate(-1295.000000, -1720.000000)">
            <g id="Group-4" transform="translate(1296.000000, 1721.000000)">
                <rect id="Rectangle-4" stroke="#000000" x="-0.5" y="-0.5" width="51" height="39" rx="3.96825397"></rect>
                <path d="M50.2651168,35.3412952 C50.178765,35.6472502 50.0677523,35.9124083 49.9108814,36.2057314 C49.5184341,36.939544 48.939544,37.5184341 48.2057314,37.9108814 C47.3884642,38.3479607 46.6011399,38.5 44.9129262,38.5 L5.08707381,38.5 C3.39886006,38.5 2.61153582,38.3479607 1.79426862,37.9108814 C1.06045596,37.5184341 0.481565913,36.939544 0.0891186069,36.2057314 C-0.11269101,35.8283802 -0.242449996,35.4886976 -0.334042305,35.0628218 L-0.389937212,34.8029278 L-0.205742145,34.6112475 C-0.108793502,34.5103592 -0.00569391121,34.405294 0.104022563,34.2955776 L20.8994572,13.5001429 C22.0932046,12.3063955 22.7574349,11.8571813 23.6443919,11.5883478 C24.4407779,11.346966 25.2594521,11.346966 26.0558381,11.5883478 C26.942795,11.8571813 27.6070254,12.3063955 28.8007728,13.5001429 L49.6663569,34.3657271 C49.8439662,34.5433364 50.0043469,34.7088676 50.1494382,34.8643181 L50.341623,35.0702246 L50.2651168,35.3412952 Z" id="Combined-Shape" stroke="#000000"></path>
                <g id="Mask">
                    <use fill="#FFFFFF" fill-rule="evenodd" xlink:href="#path-1"></use>
                    <path stroke="#000000" stroke-width="1" d="M50.3423778,4.34931365 C50.1497027,4.56432868 49.9263476,4.79871855 49.6663569,5.05870927 L28.8709222,25.8541439 C27.6771749,27.0478913 27.0129445,27.4971056 26.1259876,27.765939 C25.3296015,28.0073208 24.5109274,28.0073208 23.7145413,27.765939 C22.8275844,27.4971056 22.1633541,27.0478913 20.9696067,25.8541439 L0.104022563,4.98855979 C-0.0595144986,4.82502273 -0.208425498,4.671745 -0.344230042,4.52716508 L-0.489930495,4.3720498 L-0.479147453,4.15951016 C-0.424191644,3.07630111 -0.266313873,2.45886957 0.0891186069,1.79426862 C0.481565913,1.06045596 1.06045596,0.481565913 1.79426862,0.0891186069 C2.61153582,-0.347960677 3.39886006,-0.5 5.08707381,-0.5 L44.9129262,-0.5 C46.6011399,-0.5 47.3884642,-0.347960677 48.2057314,0.0891186069 C48.939544,0.481565913 49.5184341,1.06045596 49.9108814,1.79426862 C50.2479282,2.42449138 50.405226,3.00613554 50.4689494,3.98309008 L50.4826282,4.19280182 L50.3423778,4.34931365 Z"></path>
                </g>
            </g>
        </g>
    </g>
</svg>