<?xml version="1.0" encoding="UTF-8"?>
<svg width="48px" height="47px" viewBox="0 0 48 47" version="1.1" xmlns="http://www.w3.org/2000/svg" xmlns:xlink="http://www.w3.org/1999/xlink">
    <!-- Generator: Sketch 47.1 (45422) - http://www.bohemiancoding.com/sketch -->
    <title>adobe-illustrator-cc</title>
    <desc>Created with Sketch.</desc>
    <defs></defs>
    <g id="website-1.4" stroke="none" stroke-width="1" fill="none" fill-rule="evenodd">
        <g id="about-me" transform="translate(-424.000000, -1136.000000)" stroke="#000000" fill-rule="nonzero">
            <g id="Group" transform="translate(320.000000, 1136.000000)">
                <g id="adobe-illustrator-cc" transform="translate(104.800000, 1.000000)">
                    <path d="M0.0807885906,0.151032646 L45.8588087,0.151032646 L45.8588087,44.8397062 L0.0807885906,44.8397062 L0.0807885906,0.151032646 Z M30.7104027,15.4788557 C30.7104027,15.3118179 30.7728188,15.2282148 30.960151,15.2282148 L34.2270134,15.2282148 C34.3933725,15.2282148 34.4766779,15.290854 34.4766779,15.4788557 L34.4766779,31.955232 C34.4766779,32.1221856 34.4350671,32.2057887 34.2270134,32.2057887 L31.0017617,32.2057887 C30.7937081,32.2057887 30.7312081,32.10139 30.7312081,31.9343522 L30.7312081,15.4788557 L30.7104027,15.4788557 Z M30.4815436,10.7384845 C30.4815436,9.40201375 31.4178691,8.6085 32.6040268,8.6085 C33.8733221,8.6085 34.7264262,9.46465292 34.7264262,10.7384845 C34.7264262,12.1167148 33.8317114,12.8684691 32.5624161,12.8684691 C31.355453,12.8685533 30.4815436,12.1167148 30.4815436,10.7384845 Z M21.1178691,22.3492113 C20.5353188,20.0312251 19.1619966,14.9776581 18.6416946,12.5343935 L18.6000839,12.5343935 C18.1630872,14.9776581 17.0603188,19.1123488 16.1864094,22.3492113 L21.1178691,22.3492113 L21.1178691,22.3492113 Z M15.3332215,25.732232 L13.6893456,31.9969914 C13.6477349,32.163945 13.5853188,32.2057045 13.3772651,32.2057045 L10.3184564,32.2057045 C10.1104027,32.2057045 10.0687081,32.1430653 10.1104027,31.8925086 L16.0198826,11.1351993 C16.1239094,10.7593643 16.1863255,10.4252045 16.2279362,9.40201375 C16.2279362,9.25585567 16.2903523,9.19321649 16.3943792,9.19321649 L20.764094,9.19321649 C20.9097315,9.19321649 20.9721477,9.23497595 21.0138423,9.40201375 L27.6307886,31.934268 C27.6723993,32.1012216 27.6307886,32.2057045 27.4643456,32.2057045 L24.010151,32.2057045 C23.8437081,32.2057045 23.7395973,32.163945 23.6980705,32.0178711 L21.9917785,25.732232 L15.3332215,25.732232 L15.3332215,25.732232 Z" id="Shape"></path>
                </g>
            </g>
        </g>
    </g>
</svg>