<?xml version="1.0" encoding="UTF-8"?>
<svg width="48px" height="47px" viewBox="0 0 48 47" version="1.1" xmlns="http://www.w3.org/2000/svg" xmlns:xlink="http://www.w3.org/1999/xlink">
    <!-- Generator: Sketch 47.1 (45422) - http://www.bohemiancoding.com/sketch -->
    <title>indesign-cc</title>
    <desc>Created with Sketch.</desc>
    <defs></defs>
    <g id="website-1.4" stroke="none" stroke-width="1" fill="none" fill-rule="evenodd">
        <g id="about-me" transform="translate(-625.000000, -1137.000000)" fill-rule="nonzero">
            <g id="Group" transform="translate(320.000000, 1136.000000)">
                <g id="indesign-cc" transform="translate(306.400000, 2.000000)">
                    <polygon id="Shape" points="0.0807885906 0.151032646 45.8588087 0.151032646 45.8588087 44.8397062 0.0807885906 44.8397062"></polygon>
                    <path d="M0.0807885906,0.151032646 L45.8588087,0.151032646 L45.8588087,44.8397062 L0.0807885906,44.8397062 L0.0807885906,0.151032646 Z M29.5868289,18.3605945 C29.2746644,18.2144364 28.8584732,18.1517973 28.3590604,18.1517973 C25.6748322,18.1517973 23.8020973,20.2192268 23.8020973,23.6648024 C23.8020973,27.5906959 25.716443,29.1777234 28.1094799,29.1777234 C28.6296141,29.1777234 29.1706376,29.1150842 29.5868289,28.9271667 L29.5868289,18.3605945 Z M28.4838926,14.9567784 C28.9208893,14.9567784 29.1706376,14.9567784 29.586745,14.9985378 L29.586745,9.4437732 C29.586745,9.29761512 29.6907718,9.23497595 29.7947148,9.23497595 L33.1656879,9.23497595 C33.3321309,9.23497595 33.3737416,9.29761512 33.3737416,9.40201375 L33.3737416,28.9272509 C33.3737416,29.5118832 33.3737416,30.2428419 33.4777685,31.0363557 C33.4777685,31.1825137 33.4361577,31.2033935 33.2905201,31.2869966 C31.5010067,32.1431495 29.6075503,32.5190687 27.8388423,32.5190687 C23.2402685,32.5190687 19.9525168,29.6582096 19.9525168,23.8319244 C19.9317953,18.8409124 23.2194631,14.9567784 28.4838926,14.9567784 L28.4838926,14.9567784 Z M16.2696309,31.9343522 C16.2696309,32.1430653 16.2280201,32.2057887 15.9990772,32.2057887 L12.7946309,32.2057887 C12.5865772,32.2057887 12.5240772,32.10139 12.5240772,31.9343522 L12.5240772,9.50641237 C12.5240772,9.29761512 12.628104,9.23489175 12.7946309,9.23489175 L16.0198826,9.23489175 C16.1863255,9.23489175 16.2696309,9.29753093 16.2696309,9.48553265 L16.2696309,31.9343522 Z" id="Shape" stroke="#000000"></path>
                </g>
            </g>
        </g>
    </g>
</svg>