<?xml version="1.0" encoding="UTF-8"?>
<svg width="48px" height="48px" viewBox="0 0 48 48" version="1.1" xmlns="http://www.w3.org/2000/svg" xmlns:xlink="http://www.w3.org/1999/xlink">
    <!-- Generator: Sketch 47.1 (45422) - http://www.bohemiancoding.com/sketch -->
    <title>Linkedin</title>
    <desc>Created with Sketch.</desc>
    <defs></defs>
    <g id="Symbols" stroke="none" stroke-width="1" fill="none" fill-rule="evenodd">
        <g id="footer" transform="translate(-1223.000000, -61.000000)" fill-rule="nonzero" stroke="#000000">
            <g id="Linkedin">
                <g transform="translate(1224.000000, 62.000000)">
                    <polygon id="Shape" points="0 0 46 0 46 46 0 46"></polygon>
                    <path d="M35.9616129,35.9727419 L30.4019194,35.9727419 L30.4019194,27.7665645 C30.4019194,25.8097097 30.3648226,23.2926935 27.5183871,23.2926935 C24.6715806,23.2926935 24.1822742,25.4239032 24.1822742,27.6293065 L24.1822742,35.9727419 L18.6670968,35.9727419 L18.6670968,19.0970484 L23.9860323,19.0970484 L23.9860323,21.4063226 L24.0639355,21.4063226 C24.805129,20.079371 26.6139677,18.6782258 29.3120161,18.6782258 C34.9310645,18.6782258 35.983871,22.1734839 35.983871,26.7174677 L35.983871,35.9727419 L35.9616129,35.9727419 Z M12.6106774,15.2163548 C11.1872742,15.2163548 10.016129,14.0452097 10.016129,12.6218065 C10.016129,11.1984032 11.1872742,10.0272581 12.6106774,10.0272581 C14.0340806,10.0272581 15.2052258,11.1984032 15.2052258,12.6218065 C15.2052258,14.0452097 14.0340806,15.2163548 12.6106774,15.2163548 Z M10.016129,18.6745161 L15.2052258,18.6745161 L15.2052258,35.9727419 L10.016129,35.9727419 L10.016129,18.6745161 Z" id="Shape"></path>
                </g>
            </g>
        </g>
    </g>
</svg>