<?xml version="1.0" encoding="UTF-8"?>
<svg width="47px" height="47px" viewBox="0 0 47 47" version="1.1" xmlns="http://www.w3.org/2000/svg" xmlns:xlink="http://www.w3.org/1999/xlink">
    <!-- Generator: Sketch 47.1 (45422) - http://www.bohemiancoding.com/sketch -->
    <title>photoshop-cc</title>
    <desc>Created with Sketch.</desc>
    <defs></defs>
    <g id="website-1.4" stroke="none" stroke-width="1" fill="none" fill-rule="evenodd">
        <g id="about-me" transform="translate(-525.000000, -1136.000000)" fill-rule="nonzero">
            <g id="Group" transform="translate(320.000000, 1136.000000)">
                <g id="photoshop-cc" transform="translate(205.600000, 1.000000)">
                    <polygon id="Shape" points="0.0807885906 0.151032646 45.8588087 0.151032646 45.8588087 44.8397062 0.0807885906 44.8397062"></polygon>
                    <path d="M0.0807885906,0.151032646 L45.8588087,0.151032646 L45.8588087,44.8397062 L0.0807885906,44.8397062 L0.0807885906,0.151032646 Z M31.6676174,18.1100378 C30.0237416,18.1100378 29.4619966,18.945311 29.4619966,19.6344261 C29.4619966,20.3861804 29.8364933,20.9082577 32.042198,22.056811 C35.3090604,23.6439227 36.3286913,25.168311 36.3286913,27.4027784 C36.3286913,30.7439553 33.7901007,32.5398643 30.3567114,32.5398643 C28.5463926,32.5398643 26.9857383,32.163945 26.0910235,31.6419519 C25.9453859,31.5793127 25.9245805,31.4749141 25.9245805,31.3077921 L25.9245805,28.2380515 C25.9245805,28.0292543 26.0286074,27.9665309 26.1743289,28.0710137 C27.4852349,28.9272509 28.9833893,29.3030859 30.3567114,29.3030859 C32.0005872,29.3030859 32.6872483,28.6139708 32.6872483,27.6742148 C32.6872483,26.9224605 32.2086409,26.2542251 30.1069631,25.168311 C27.1521812,23.7483213 25.9245805,22.3074519 25.9245805,19.9059467 C25.9245805,17.2120412 28.0262584,14.9776581 31.6676174,14.9776581 C33.4571309,14.9776581 34.7056208,15.2491787 35.3922819,15.5623746 C35.5587248,15.6667732 35.6003356,15.833811 35.6003356,15.9799691 L35.6003356,18.8408282 C35.6003356,19.007866 35.4963087,19.1123488 35.2881711,19.0496254 C34.372651,18.4650773 33.0201342,18.1100378 31.6676174,18.1100378 L31.6676174,18.1100378 Z M13.7725671,20.5950619 C14.2511745,20.6368213 14.625755,20.6368213 15.4580537,20.6368213 C17.8927013,20.6368213 20.1815436,19.7806684 20.1815436,16.4603711 C20.1815436,13.8083093 18.5376678,12.4717543 15.7702181,12.4717543 C14.9379195,12.4717543 14.1471477,12.5135137 13.7725671,12.5343935 L13.7725671,20.5950619 Z M10.0687919,9.50641237 C10.0687919,9.3602543 10.360151,9.25577148 10.5265101,9.25577148 C11.8583054,9.1931323 13.8350671,9.15137285 15.8950503,9.15137285 C21.6588926,9.15137285 23.9061242,12.325512 23.9061242,16.376768 C23.9061242,21.6808918 20.0774329,23.9571186 15.3748322,23.9571186 C14.5841443,23.9571186 14.3136745,23.9153591 13.7517617,23.9153591 L13.7517617,31.934268 C13.7517617,32.1013058 13.6893456,32.1848247 13.5020973,32.1848247 L10.3184564,32.1848247 C10.1520134,32.1848247 10.0687081,32.1221856 10.0687081,31.934268 L10.0687081,9.50641237 L10.0687919,9.50641237 Z" id="Shape" stroke="#000000"></path>
                </g>
            </g>
        </g>
    </g>
</svg>