<?xml version="1.0" encoding="UTF-8"?>
<svg width="48px" height="48px" viewBox="0 0 48 48" version="1.1" xmlns="http://www.w3.org/2000/svg" xmlns:xlink="http://www.w3.org/1999/xlink">
    <!-- Generator: Sketch 47.1 (45422) - http://www.bohemiancoding.com/sketch -->
    <title>proto-io</title>
    <desc>Created with Sketch.</desc>
    <defs></defs>
    <g id="website-1.4" stroke="none" stroke-width="1" fill="none" fill-rule="evenodd">
        <g id="about-me" transform="translate(-726.000000, -1136.000000)" fill-rule="nonzero">
            <g id="Group" transform="translate(320.000000, 1136.000000)">
                <g id="proto-io" transform="translate(407.200000, 1.000000)">
                    <path d="M22.955506,45.7364583 C10.3737444,45.7364583 0.174553571,35.5372675 0.174553571,22.955292 C0.174553571,10.3737444 10.3737444,0.174553571 22.955506,0.174553571 C35.5370536,0.174553571 45.7358166,10.3801618 45.7358166,22.955292 C45.7362444,35.5302083 35.5302083,45.7358166 22.955506,45.7358166" id="Shape" stroke="#141414"></path>
                    <path d="M29.5988095,22.955506 C29.5988095,16.5092169 27.0692801,10.6582496 22.9557199,6.32671131 C18.8417318,10.6541853 16.3036458,16.516276 16.3036458,22.955506 C16.3036458,25.9017392 16.8504092,28.7264695 17.822433,31.3441313 C16.4142392,33.3981306 15.3744048,36.2752697 14.9183408,39.5840867 C16.3710286,37.8648624 18.1563523,36.6049107 20.1361235,35.9834914 C20.9648251,37.2590588 21.8979167,38.4740885 22.9610677,39.5843006 C24.0132155,38.4753135 24.9586079,37.2697232 25.7847284,35.9834914 C27.7649275,36.5910063 29.5508929,37.8665737 31.0089286,39.5979911 C30.5522228,36.2889602 29.5128162,33.4116071 28.1048363,31.3578218 C29.0633836,28.7266834 29.6073661,25.9017392 29.6073661,22.955506 M22.9557199,23.0162574 C21.2991722,23.0162574 19.956436,21.6735212 19.956436,20.0171875 C19.956436,18.3610677 21.2991722,17.0185454 22.9557199,17.0185454 C24.6120536,17.0185454 25.9629185,18.3550781 25.9629185,20.025744 C25.9545759,21.649349 24.625958,23.0162574 22.955506,23.0162574" id="Shape" stroke="#000000"></path>
                </g>
            </g>
        </g>
    </g>
</svg>