<?xml version="1.0" encoding="UTF-8"?>
<svg width="52px" height="47px" viewBox="0 0 52 47" version="1.1" xmlns="http://www.w3.org/2000/svg" xmlns:xlink="http://www.w3.org/1999/xlink">
    <!-- Generator: Sketch 47.1 (45422) - http://www.bohemiancoding.com/sketch -->
    <title>sketch logo</title>
    <desc>Created with Sketch.</desc>
    <defs></defs>
    <g id="website-1.4" stroke="none" stroke-width="1" fill="none" fill-rule="evenodd">
        <g id="about-me" transform="translate(-319.000000, -1135.000000)">
            <g id="Group" transform="translate(320.000000, 1136.000000)">
                <g id="sketch-logo">
                    <polygon id="Fill-1" points="25 0 10.8300607 1.54362416 0 16.4653244 25 46 50 16.4653244 39.1700405 1.54362416"></polygon>
                    <polygon id="Fill-2" stroke="#000000" stroke-linecap="round" stroke-linejoin="bevel" points="0 16.4455959 25 46 50 16.4455959"></polygon>
                    <polyline id="Fill-3" stroke="#000000" stroke-linecap="round" stroke-linejoin="bevel" points="10.0938967 16.4455959 25 46 39.9061033 16.4455959"></polyline>
                    <polygon id="Fill-4" stroke="#000000" stroke-linecap="round" stroke-linejoin="bevel" points="24.9999493 0 10.0938967 16.4455959 39.9061033 16.4455959"></polygon>
                    <polygon id="Fill-6" stroke="#000000" stroke-linecap="round" stroke-linejoin="bevel" points="39.8073801 16.2072539 50 16.2072539 44.7523145 8.86960872 39.2018779 1.43005181"></polygon>
                    <path d="M39.0186916,1.18556701 L49.7663551,16.3608247" id="Line" stroke="#333333" stroke-linecap="round" stroke-linejoin="round"></path>
                    <path d="M10.5140187,1.65979381 L0,16.3608247" id="Line" stroke="#333333" stroke-linecap="round" stroke-linejoin="round"></path>
                    <polygon id="Fill-7" stroke="#000000" stroke-linecap="round" stroke-linejoin="bevel" points="10.5633803 1.66839378 10.0938967 16.4455959 25 0"></polygon>
                    <polyline id="Fill-8" stroke="#000000" stroke-linecap="round" stroke-linejoin="bevel" points="39.953271 16.3608247 39.084507 1.19170984 25 0"></polyline>
                </g>
            </g>
        </g>
    </g>
</svg>